<svg xmlns="http://www.w3.org/2000/svg" xmlns:xlink="http://www.w3.org/1999/xlink" width="16" height="16" version="1.1" viewBox="0 0 16 16"><title>user-happy-yellow-newcomer</title><desc>Created with Sketch.</desc><g id="Icons" fill="none" fill-rule="evenodd" stroke="none" stroke-width="1"><g id="user-happy-yellow-newcomer"><polygon id="Star-2-Copy-2" fill="#FC3" points="8 14.186 5.528 15.717 4.428 13.025 1.528 12.811 2.22 9.986 0 8.108 2.22 6.231 1.528 3.406 4.428 3.192 5.528 .5 8 2.031 10.472 .5 11.572 3.192 14.472 3.406 13.78 6.231 16 8.108 13.78 9.986 14.472 12.811 11.572 13.025 10.472 15.717"/><g id="Group" fill="#544712" transform="translate(3.500000, 3.500000)"><path id="Page-1-Copy" d="M6.92031587,0.71875 C7.590674,0.71875 8.06950124,1.29334268 8.06950124,1.86793537 C8.06950124,2.44252805 7.49490855,3.01712074 6.92031587,3.01712074 C6.34572318,3.01712074 5.7711305,2.44252805 5.7711305,1.86793537 C5.7711305,1.29334268 6.24995774,0.71875 6.92031587,0.71875 Z M2.1320435,0.71875 C2.80240163,0.71875 3.28122887,1.29334268 3.28122887,1.86793537 C3.28122887,2.44252805 2.80240163,3.11288618 2.1320435,3.11288618 C1.46168537,3.11288618 0.982858131,2.5382935 0.982858131,1.96370082 C0.982858131,1.38910813 1.46168537,0.71875 2.1320435,0.71875 Z M4.85572917,5.74947917 C4.18541667,5.74947917 3.440625,5.675 2.69583333,5.52604167 C1.95104167,5.37708333 1.35520833,5.228125 0.908333333,5.07916667 L0.3125,4.78125 C0.3125,5.60052083 0.5359375,6.3453125 0.908333333,7.015625 C1.28072917,7.6859375 1.8765625,8.20729167 2.546875,8.65416667 C3.2171875,9.0265625 3.8875,9.25 4.63229167,9.25 C5.37708333,9.25 5.97291667,9.10104167 6.49427083,8.87760417 C7.015625,8.65416667 7.53697917,8.35625 7.909375,7.909375 C8.28177083,7.53697917 8.65416667,7.015625 8.87760417,6.49427083 C9.10104167,5.97291667 9.25,5.37708333 9.25,4.78125 C7.83489583,5.4515625 6.3453125,5.74947917 4.85572917,5.74947917"/></g></g></g></svg>